.
 
http://www.scenetime.com    -   SceneTime [ We been having it ] !!!


How come you press harder on a remote control when you know the battery is dead? so you better seed to get speed ;)

        Seed back for speed


...................................NFO:.................................................
[img]http://leetleech.org/images/21880028138427238145.jpg[/img]



      Prom 2011 R5 LiNE XViD AC3 - SPEEDY




IMDB: http://www.imdb.com/title/tt1604171/   




language: ENGLISH






General



Complete name                    : Prom 2011 R5 LiNE XViD AC3 - SPEEDY.avi
Format                           : AVI
Format/Info                      : Audio Video Interleave
Format profile                   : OpenDML
Format settings                  : rec
File size                        : 1.16 GiB
Duration                         : 1h 39mn
Overall bit rate                 : 1 675 Kbps





Video



ID                               : 0
Format                           : MPEG-4 Visual
Format profile                   : Advanced Simple@L5
Format settings, BVOP            : 2
Format settings, QPel            : No
Format settings, GMC             : No warppoints
Format settings, Matrix          : Default (H.263)
Codec ID                         : XVID
Codec ID/Hint                    : XviD
Duration                         : 1h 39mn
Bit rate                         : 1 222 Kbps
Width                            : 720 pixels
Height                           : 384 pixels
Display aspect ratio             : 1.875
Frame rate                       : 25.000 fps
Color space                      : YUV
Chroma subsampling               : 4:2:0
Bit depth                        : 8 bits
Scan type                        : Progressive
Compression mode                 : Lossy
Bits/(Pixel*Frame)               : 0.177
Stream size                      : 870 MiB (73%)





Audio



ID                               : 1
Format                           : AC-3
Format/Info                      : Audio Coding 3
Mode extension                   : CM (complete main)
Codec ID                         : 2000
Duration                         : 1h 39mn
Bit rate mode                    : Constant
Bit rate                         : 448 Kbps
Channel(s)                       : 2 channels
Channel positions                : Front: L R
Sampling rate                    : 44.1 KHz
Bit depth                        : 16 bits
Compression mode                 : Lossy
Stream size                      : 319 MiB (27%)
Alignment                        : Split accross interleaves
Interleave, duration             : 70 ms (1.74 video frames)
Interleave, preload duration     : 209 ms



PLOT

 Storyline

A group of teenagers get ready for their high school prom. 


Genres: Comedy | Drama 


Director:
Joe Nussbaum
Writer:
Katie Wech
Stars:
Aimee Teegarden, Thomas McDonell and DeVaughn 



SCREENS:

[img]http://leetleech.org/images/56614234625853239988.jpg[/img]
[img]http://leetleech.org/images/29446280483846158782.jpg[/img]
[img]http://leetleech.org/images/83358051306900501220.jpg[/img]
[img]http://leetleech.org/images/19223321239445833740.jpg[/img]
[img]http://leetleech.org/images/54512663420810846771.jpg[/img]
[img]http://leetleech.org/images/51606520902292373471.jpg[/img]
[img]http://leetleech.org/images/49232655494695678255.jpg[/img]




GREETS:

 SPEEDY  /  IMAGINE  /  AND ALL